<svg xmlns="http://www.w3.org/2000/svg" viewBox="0 0 1100 520">
  <defs>
    <linearGradient id="bg" x1="0" y1="0" x2="1" y2="1">
      <stop offset="0%" stop-color="#1c1620"/>
      <stop offset="100%" stop-color="#241b23"/>
    </linearGradient>
    <filter id="shadow" x="-10%" y="-10%" width="120%" height="120%">
      <feDropShadow dx="0" dy="8" stdDeviation="12" flood-color="#000000" flood-opacity=".22"/>
    </filter>
  </defs>
  <rect width="1100" height="520" rx="24" fill="url(#bg)"/>
  <g fill="#312833" opacity=".95" filter="url(#shadow)">
    <path d="M120 180c38-26 96-35 134-28 46 8 88 38 115 69 16 18 14 41-4 54-14 10-34 9-56 12-26 3-39 14-61 30-17 13-43 22-70 17-30-5-50-29-64-55-16-29-24-74 6-99z"/>
    <path d="M364 156c26-22 71-35 111-34 58 2 105 18 140 44 30 22 55 58 48 86-7 25-39 32-69 36-31 4-65 12-85 28-25 19-43 30-83 35-49 6-90-10-118-34-24-21-35-57-26-90 10-35 38-54 82-71z"/>
    <path d="M760 132c34-14 80-12 112 2 28 12 56 35 61 62 4 20-7 39-20 57-18 24-23 41-21 72 2 24-14 48-45 56-27 7-53-1-77-15-25-14-46-17-75-17-37 0-69-13-79-44-9-29 12-49 34-71 20-20 36-40 41-65 6-26 26-30 69-37z"/>
    <path d="M875 320c18-14 42-20 60-15 14 4 26 17 27 33 1 16-10 32-24 42-18 14-46 18-66 9-20-9-25-41 3-69z"/>
    <path d="M960 354c18 4 33 14 39 29 7 16-3 34-20 40-17 7-38 3-52-11-16-16-2-39 33-58z"/>
    <path d="M240 350c28-16 58-14 76-2 14 10 22 31 16 48-6 18-26 31-48 31-24 0-44-8-55-25-11-16-10-37 11-52z"/>
  </g>
  <g fill="#5d5260" opacity=".7">
    <circle cx="190" cy="211" r="2"/><circle cx="456" cy="173" r="2"/><circle cx="812" cy="179" r="2"/>
    <circle cx="970" cy="372" r="2"/><circle cx="262" cy="386" r="2"/>
  </g>
</svg>